<svg width="50" height="50" viewBox="0 0 50 50" fill="none" xmlns="http://www.w3.org/2000/svg">
<circle cx="25" cy="25" r="25" fill="#8C2BE7"/>
<path d="M24.9994 33.9437L18.6977 37.7656C18.4194 37.9439 18.1283 38.0204 17.8246 37.9949C17.5209 37.9694 17.2552 37.8675 17.0274 37.6891C16.7997 37.5108 16.6225 37.2881 16.496 37.0211C16.3694 36.7541 16.3441 36.4544 16.4201 36.1222L18.0904 28.8989L12.51 24.0451C12.2569 23.8158 12.099 23.5544 12.0363 23.2609C11.9735 22.9674 11.9922 22.681 12.0924 22.4017C12.1927 22.1225 12.3445 21.8932 12.548 21.7138C12.7514 21.5344 13.0298 21.4198 13.3831 21.3698L20.7477 20.7201L23.5948 13.9172C23.7213 13.6115 23.9177 13.3822 24.1839 13.2293C24.4502 13.0764 24.722 13 24.9994 13C25.2767 13 25.5485 13.0764 25.8148 13.2293C26.081 13.3822 26.2774 13.6115 26.4039 13.9172L29.251 20.7201L36.6156 21.3698C36.9699 21.4208 37.2483 21.5355 37.4507 21.7138C37.6532 21.8922 37.805 22.1215 37.9063 22.4017C38.0075 22.682 38.0267 22.9689 37.964 23.2624C37.9012 23.5559 37.7428 23.8168 37.4887 24.0451L31.9083 28.8989L33.5787 36.1222C33.6546 36.4534 33.6293 36.753 33.5027 37.0211C33.3762 37.2891 33.199 37.5118 32.9713 37.6891C32.7435 37.8665 32.4778 37.9684 32.1741 37.9949C31.8704 38.0214 31.5793 37.9449 31.301 37.7656L24.9994 33.9437Z" fill="white"/>
</svg>
