<svg width="16" height="26" viewBox="0 0 16 26" fill="none" xmlns="http://www.w3.org/2000/svg">
<path d="M3.00135 24.25C3.00135 22.4825 3.00135 21.5988 3.55133 21.0501C4.09882 20.5001 4.98254 20.5001 6.75124 20.5001H9.25116C11.0186 20.5001 11.9023 20.5001 12.4511 21.0501C13.0011 21.5988 13.0011 22.4825 13.0011 24.25V25.5H3.00135V24.25ZM8.0012 14.2501V20.5001V14.2501ZM0.501426 25.5H15.501H0.501426ZM9.29741 1.58405L10.6161 4.24527C10.7961 4.61526 11.2761 4.97026 11.6811 5.03901L14.0735 5.439C15.6035 5.6965 15.9635 6.81523 14.861 7.92022L13.0011 9.7952C12.6861 10.1127 12.5136 10.7252 12.6111 11.1639L13.1435 13.4839C13.5635 15.3214 12.5961 16.0326 10.9836 15.0714L8.74243 13.7339C8.33744 13.4914 7.66996 13.4914 7.25747 13.7339L5.01504 15.0714C3.41009 16.0326 2.43512 15.3139 2.85511 13.4839L3.38759 11.1627C3.48509 10.7252 3.31259 10.1127 2.9976 9.7952L1.13766 7.92022C0.0426896 6.81523 0.395179 5.6965 1.92513 5.439L4.31756 5.03901C4.71505 4.97026 5.19504 4.61526 5.37503 4.24527L6.69499 1.5828C7.41497 0.139067 8.58493 0.139067 9.29741 1.5828" fill="white"/>
<path d="M8.0012 14.2501V20.5001M0.501426 25.5H15.501M9.29741 1.58405L10.6161 4.24527C10.7961 4.61526 11.2761 4.97026 11.6811 5.03901L14.0735 5.439C15.6035 5.6965 15.9635 6.81523 14.861 7.92022L13.0011 9.7952C12.6861 10.1127 12.5136 10.7252 12.6111 11.1639L13.1435 13.4839C13.5635 15.3214 12.5961 16.0326 10.9836 15.0714L8.74243 13.7339C8.33744 13.4914 7.66996 13.4914 7.25747 13.7339L5.01504 15.0714C3.41009 16.0326 2.43512 15.3139 2.85511 13.4839L3.38759 11.1627C3.48509 10.7252 3.31259 10.1127 2.9976 9.7952L1.13766 7.92022C0.0426896 6.81523 0.395179 5.6965 1.92513 5.439L4.31756 5.03901C4.71505 4.97026 5.19504 4.61526 5.37503 4.24527L6.69499 1.5828C7.41497 0.139067 8.58493 0.139067 9.29741 1.5828M3.00135 24.25C3.00135 22.4825 3.00135 21.5988 3.55133 21.0501C4.09882 20.5001 4.98254 20.5001 6.75124 20.5001H9.25116C11.0186 20.5001 11.9023 20.5001 12.4511 21.0501C13.0011 21.5988 13.0011 22.4825 13.0011 24.25V25.5H3.00135V24.25Z" stroke="white" stroke-linecap="round" stroke-linejoin="round"/>
</svg>
