<svg width="16" height="25" viewBox="0 0 16 25" fill="none" xmlns="http://www.w3.org/2000/svg">
<path d="M13.3294 14.5317L13.7027 12.7257C13.7365 12.5849 13.7337 12.438 13.6945 12.2985C13.6554 12.1589 13.581 12.0311 13.4782 11.9264C13.3734 11.8222 13.2418 11.7471 13.0971 11.7088C12.9524 11.6705 12.7998 11.6704 12.655 11.7085L10.7852 12.0614L9.2777 10.5977L11.5657 8.68754C12.2933 8.0576 12.7345 7.1737 12.7929 6.22892V2.07595H14.931C15.2145 2.07595 15.4864 1.9666 15.6869 1.77194C15.8874 1.57728 16 1.31327 16 1.03798C16 0.762688 15.8874 0.498675 15.6869 0.304016C15.4864 0.109358 15.2145 0 14.931 0H1.03535C0.757753 0.00862663 0.494495 0.121765 0.301268 0.315481C0.108041 0.509198 0 0.768299 0 1.03798C0 1.30765 0.108041 1.56676 0.301268 1.76047C0.494495 1.95419 0.757753 2.06733 1.03535 2.07595H3.17339V6.22786C3.19134 6.70034 3.30545 7.16469 3.50912 7.59415C3.7128 8.0236 4.00202 8.40966 4.3601 8.73006L6.64812 10.6391L5.14066 12.1028L3.26864 11.7499C3.12402 11.712 2.97161 11.7123 2.82711 11.7506C2.68261 11.7889 2.55122 11.8638 2.44648 11.9678C2.34371 12.0725 2.26938 12.2004 2.2302 12.3399C2.19102 12.4795 2.18823 12.6263 2.22206 12.7672L2.63806 14.5317L0.500022 16.6076C0.300738 16.802 0.188861 17.0652 0.188861 17.3395C0.188861 17.6138 0.300738 17.8769 0.500022 18.0713L2.63916 20.1473L2.26475 21.9639C2.2319 22.1048 2.23519 22.2513 2.27432 22.3907C2.31345 22.5301 2.38723 22.658 2.48918 22.7632C2.70813 22.9652 3.01685 23.0481 3.31243 22.9811L5.18335 22.6176L7.26775 24.6935C7.36715 24.7907 7.48536 24.8677 7.61556 24.9203C7.74576 24.9729 7.88539 25 8.02641 25C8.16743 25 8.30706 24.9729 8.43726 24.9203C8.56746 24.8677 8.68567 24.7907 8.78507 24.6935L10.8706 22.6176L12.7404 22.9811C12.8855 23.014 13.0367 23.0112 13.1804 22.9732C13.3241 22.9352 13.4558 22.863 13.5636 22.7632C13.6656 22.658 13.7394 22.5301 13.7785 22.3907C13.8176 22.2513 13.8209 22.1048 13.7881 21.9639L13.3283 20.1058L15.4674 18.0299C15.6538 17.8373 15.7575 17.583 15.7575 17.3187C15.7575 17.0545 15.6538 16.8002 15.4674 16.6076L13.3294 14.5317ZM10.656 17.3443C10.656 19.3426 8.42928 20.5905 6.64703 19.5924C4.86587 18.5932 4.86587 16.0953 6.64703 15.0972C7.05323 14.869 7.51418 14.7487 7.98347 14.7485C8.45277 14.7482 8.91385 14.8681 9.32028 15.0959C9.72671 15.3237 10.0642 15.6514 10.2986 16.0462C10.5331 16.4409 10.6564 16.8886 10.656 17.3443ZM5.75043 7.15157C5.50248 6.89968 5.34834 6.57456 5.31253 6.22786V2.33531C5.31253 2.19182 5.43186 2.07595 5.57965 2.07595H7.71769C7.86548 2.07595 7.98481 2.19288 7.98481 2.33531V8.4505C7.98492 8.49992 7.9696 8.54822 7.94087 8.58902C7.91214 8.62981 7.87135 8.6612 7.82388 8.67904C7.78304 8.706 7.73479 8.72041 7.68539 8.72041C7.636 8.72041 7.58775 8.706 7.54691 8.67904L5.75043 7.15157Z" fill="white"/>
</svg>
