<svg width="18" height="25" viewBox="0 0 18 25" fill="none" xmlns="http://www.w3.org/2000/svg">
<path d="M0 8.74875C0.00147901 10.1255 0.337546 11.4823 0.980809 12.7088C1.62407 13.9353 2.55632 14.9966 3.70157 15.8063L3.70286 15.8075C4.4404 16.3324 5.2559 16.7451 6.12129 17.0312L6.18686 17.055C6.67445 17.2091 7.1747 17.3224 7.68214 17.3937C8.11773 17.4605 8.55777 17.496 8.99871 17.5H9C9.45 17.5 9.88714 17.4575 10.3204 17.395L10.5544 17.36C10.9873 17.2867 11.4077 17.1854 11.8157 17.0563L11.8697 17.0362C15.4286 15.8663 18 12.5975 18 8.74875C18 3.925 13.9629 0 9 0C4.03714 0 0 3.925 0 8.74875ZM9 2.5C12.5434 2.5 15.4286 5.3025 15.4286 8.74875H12.8571C12.8558 7.75471 12.4489 6.80178 11.7258 6.099C11.0027 5.39623 10.0224 5.00099 9 5V2.5ZM3.24129 18.4937V25L9 23.125L14.7587 25L14.76 18.4937C13.0102 19.4802 11.0234 19.9997 9.00064 19.9997C6.97793 19.9997 4.99111 19.4802 3.24129 18.4937Z" fill="white"/>
</svg>
